<?xml version="1.0" standalone="no"?>
<!DOCTYPE svg PUBLIC "-//W3C//DTD SVG 20010904//EN"
 "http://www.w3.org/TR/2001/REC-SVG-20010904/DTD/svg10.dtd">
<svg version="1.0" xmlns="http://www.w3.org/2000/svg"
 width="778.000000pt" height="291.000000pt" viewBox="0 0 778.000000 291.000000"
 preserveAspectRatio="xMidYMid meet">

<g transform="translate(0.000000,291.000000) scale(0.100000,-0.100000)"
fill="#4258ff" stroke="none">
<path d="M1315 2769 c-516 -66 -940 -489 -1041 -1039 -26 -142 -24 -383 5
-520 86 -404 311 -715 644 -891 117 -61 221 -95 369 -120 115 -19 167 -19
2650 -16 l2533 3 98 22 c246 57 441 165 618 342 187 188 303 407 356 668 13
64 18 135 18 267 -1 162 -3 192 -29 300 -48 206 -123 363 -253 533 -182 238
-478 410 -777 451 -97 14 -5086 13 -5191 0z m5120 -89 c277 -26 494 -128 690
-325 246 -245 368 -573 352 -940 -22 -489 -328 -912 -773 -1071 -182 -65 -157
-64 -1426 -64 l-1148 0 0 1205 0 1205 1098 0 c667 0 1140 -4 1207 -10z m-4401
-122 l26 -23 -10 -320 c-5 -176 -14 -552 -20 -835 l-11 -515 -25 -22 c-33 -30
-105 -32 -134 -3 -24 24 -23 -3 -10 590 11 505 29 1042 36 1088 9 58 100 82
148 40z m-864 -234 c145 -33 282 -129 334 -233 98 -193 30 -415 -159 -512 -36
-19 -65 -36 -65 -39 1 -3 35 -20 76 -39 97 -45 193 -131 231 -209 36 -74 39
-184 5 -248 -37 -72 -121 -131 -227 -161 -115 -32 -478 -25 -603 12 -29 9 -66
28 -83 43 -64 57 -64 252 1 695 60 421 99 637 121 679 5 10 24 22 42 28 43 13
245 4 327 -16z m2777 -385 c62 -23 104 -85 106 -156 0 -59 -25 -86 -86 -87
-61 -1 -87 23 -87 81 0 24 -5 53 -10 64 -27 49 -107 0 -131 -80 -12 -39 -11
-43 13 -69 46 -48 61 -91 62 -172 1 -50 -5 -90 -17 -122 -42 -107 -194 -188
-357 -188 l-61 0 3 -37 3 -38 62 -7 c193 -21 354 -103 408 -208 40 -77 37
-178 -8 -269 -34 -71 -132 -163 -218 -205 -88 -43 -151 -56 -273 -56 -234 0
-403 109 -436 280 -13 69 3 169 37 232 33 60 112 136 185 177 52 30 56 34 62
78 13 96 10 108 -40 149 -60 48 -100 112 -114 181 -15 70 4 126 64 191 79 86
180 117 355 110 61 -2 111 -1 111 2 0 4 19 28 41 54 41 46 75 69 134 93 38 15
155 16 192 2z m-1232 -248 c51 -22 129 -92 153 -135 13 -24 17 -58 17 -156 0
-145 -22 -239 -82 -353 -60 -114 -132 -155 -256 -145 -136 11 -232 102 -281
267 -41 138 -4 311 90 428 92 113 232 150 359 94z"/>
<path d="M5543 2210 c-69 -41 -78 -99 -26 -160 19 -23 33 -30 62 -30 69 0 104
64 81 148 -16 63 -58 78 -117 42z"/>
<path d="M6885 1949 c-54 -27 -113 -85 -136 -134 -25 -55 -25 -154 0 -203 23
-44 60 -80 162 -156 120 -89 156 -157 146 -278 -10 -120 -86 -245 -161 -264
-34 -8 -88 11 -117 42 -22 24 -24 34 -24 130 0 118 -3 124 -71 124 -26 0 -51
-7 -65 -19 -23 -18 -24 -26 -24 -128 0 -98 2 -111 24 -142 15 -20 46 -44 80
-59 48 -22 70 -26 156 -26 114 0 161 11 227 53 97 61 142 162 142 316 0 111
-22 188 -66 238 -18 20 -76 63 -128 96 -116 72 -134 94 -134 164 0 62 17 111
52 150 36 38 68 35 93 -8 24 -39 54 -51 96 -38 61 21 31 94 -58 138 -61 31
-137 33 -194 4z"/>
<path d="M5095 1933 c-65 -24 -110 -56 -147 -107 l-29 -41 -132 0 c-111 0
-142 -4 -197 -23 -77 -26 -132 -68 -171 -131 -62 -97 -20 -250 91 -328 39 -27
40 -29 39 -88 -1 -93 -7 -104 -79 -147 -140 -85 -200 -176 -208 -315 -7 -131
30 -209 134 -278 88 -59 162 -79 299 -79 145 0 230 22 323 85 128 85 197 195
197 314 0 59 -5 79 -30 123 -60 110 -207 183 -413 207 l-63 7 3 40 3 40 75 3
c127 6 251 57 312 129 25 30 48 111 48 169 0 70 -18 121 -58 168 l-34 40 17
45 c49 128 141 137 148 14 4 -62 22 -80 79 -80 28 0 46 7 65 26 22 22 25 31
19 71 -8 61 -38 107 -84 129 -53 25 -146 28 -207 7z m-196 -252 c56 -29 81
-80 81 -165 0 -139 -71 -216 -200 -216 -58 0 -112 24 -159 71 -47 47 -65 87
-65 150 -1 73 35 127 108 164 45 23 60 26 122 22 44 -3 87 -13 113 -26z m-49
-637 c103 -31 161 -88 196 -193 41 -126 -43 -267 -206 -345 -57 -27 -75 -31
-150 -31 -96 0 -141 18 -196 77 -56 59 -69 94 -69 188 0 91 11 128 56 196 70
104 227 150 369 108z"/>
<path d="M5511 1847 c-14 -7 -28 -25 -32 -42 -4 -16 -15 -140 -24 -275 -9
-135 -23 -328 -30 -430 -17 -216 -15 -220 67 -220 81 0 81 0 101 280 10 135
25 339 33 455 l16 210 -22 17 c-26 21 -74 23 -109 5z"/>
<path d="M6085 1697 c-90 -37 -156 -100 -200 -192 -90 -191 -41 -449 104 -549
39 -27 123 -56 163 -56 59 0 123 25 165 63 104 96 178 373 143 542 -10 52 -19
67 -64 110 -28 28 -69 59 -91 70 -48 23 -175 30 -220 12z m147 -77 c42 -33 60
-93 66 -215 7 -179 -30 -325 -101 -396 -23 -24 -36 -29 -56 -24 -42 10 -74 38
-100 91 -21 41 -26 66 -29 161 -5 134 14 232 59 311 48 84 111 112 161 72z"/>
<path d="M946 2208 c-51 -176 -136 -880 -136 -1128 0 -98 12 -125 62 -134 62
-11 352 -9 394 2 100 29 174 123 174 224 0 65 -33 147 -81 201 -68 78 -147
105 -356 123 -92 7 -124 26 -100 58 9 13 40 21 115 31 132 17 194 40 254 94
79 70 93 107 92 231 -1 122 -13 157 -76 227 -62 66 -146 102 -275 117 l-52 7
-15 -53z"/>
<path d="M3382 1698 c-91 -15 -162 -92 -162 -175 0 -96 97 -204 196 -219 92
-13 169 27 204 107 29 68 26 173 -6 216 -43 58 -139 87 -232 71z"/>
<path d="M3289 1036 c-130 -46 -199 -151 -199 -303 0 -148 105 -253 252 -254
78 -1 108 6 179 42 112 56 191 164 192 263 1 109 -81 220 -186 251 -62 18
-189 19 -238 1z"/>
<path d="M2532 1601 c-69 -69 -106 -204 -100 -361 5 -121 25 -179 77 -223 54
-45 94 -34 136 37 50 85 60 138 60 311 0 166 -6 194 -53 248 -25 28 -85 22
-120 -12z"/>
</g>
</svg>
